<?xml version="1.0" standalone="no"?>
<svg xmlns:xlink="http://www.w3.org/1999/xlink" id="wave" style="transform:rotate(180deg); transition: 0.3s" viewBox="0 0 1440 100" version="1.1" xmlns="http://www.w3.org/2000/svg"><defs><linearGradient id="sw-gradient-0" x1="0" x2="0" y1="1" y2="0"><stop stop-color="rgba(255, 249, 234, 1)" offset="0%"/><stop stop-color="rgba(255, 249, 234, 1)" offset="100%"/></linearGradient></defs><path style="transform:translate(0, 0px); opacity:1" fill="url(#sw-gradient-0)" d="M0,50L30,43.3C60,37,120,23,180,26.7C240,30,300,50,360,50C420,50,480,30,540,23.3C600,17,660,23,720,35C780,47,840,63,900,65C960,67,1020,53,1080,45C1140,37,1200,33,1260,31.7C1320,30,1380,30,1440,40C1500,50,1560,70,1620,80C1680,90,1740,90,1800,76.7C1860,63,1920,37,1980,28.3C2040,20,2100,30,2160,41.7C2220,53,2280,67,2340,60C2400,53,2460,27,2520,25C2580,23,2640,47,2700,50C2760,53,2820,37,2880,31.7C2940,27,3000,33,3060,35C3120,37,3180,33,3240,30C3300,27,3360,23,3420,33.3C3480,43,3540,67,3600,68.3C3660,70,3720,50,3780,46.7C3840,43,3900,57,3960,61.7C4020,67,4080,63,4140,60C4200,57,4260,53,4290,51.7L4320,50L4320,100L4290,100C4260,100,4200,100,4140,100C4080,100,4020,100,3960,100C3900,100,3840,100,3780,100C3720,100,3660,100,3600,100C3540,100,3480,100,3420,100C3360,100,3300,100,3240,100C3180,100,3120,100,3060,100C3000,100,2940,100,2880,100C2820,100,2760,100,2700,100C2640,100,2580,100,2520,100C2460,100,2400,100,2340,100C2280,100,2220,100,2160,100C2100,100,2040,100,1980,100C1920,100,1860,100,1800,100C1740,100,1680,100,1620,100C1560,100,1500,100,1440,100C1380,100,1320,100,1260,100C1200,100,1140,100,1080,100C1020,100,960,100,900,100C840,100,780,100,720,100C660,100,600,100,540,100C480,100,420,100,360,100C300,100,240,100,180,100C120,100,60,100,30,100L0,100Z"/></svg>